<svg width="63" height="21" viewBox="0 0 63 21" fill="none" xmlns="http://www.w3.org/2000/svg">
<g clip-path="url(#clip0_1_14061)">
<g clip-path="url(#clip1_1_14061)">
<path d="M26.9676 0.957487L16.5867 8.74673C16.0988 6.83085 14.9712 5.12788 13.3817 3.90622C11.7922 2.68455 9.83113 2.01365 7.8076 1.99927H0.357178V19.9036H7.8076C9.84191 19.9304 11.8239 19.2748 13.422 18.0466C15.0201 16.8183 16.1373 15.0919 16.5867 13.1562L26.9676 20.9454L37.3486 13.1562V19.9036H49.0582V16.2694H41.3345V1.98716H37.0754V8.73459L27.2284 16.5238L25.105 14.7067L29.8981 11.0726L34.952 7.18402L32.0215 4.84604L22.1746 12.3687L20.0511 10.5517L29.8981 3.28335L26.9676 0.945374V0.957487ZM4.34316 5.62132H7.53445C8.19482 5.62257 8.84716 5.76307 9.44673 6.0332C10.0557 6.30645 10.6042 6.69329 11.061 7.1719C11.5418 7.67567 11.921 8.26337 12.1785 8.90416C12.7081 10.2661 12.7081 11.77 12.1785 13.1319C11.9377 13.7708 11.58 14.3619 11.1231 14.8763C10.6789 15.382 10.1339 15.7942 9.5212 16.0877C8.89014 16.3849 8.19799 16.5382 7.49718 16.5359H4.34316V5.63344V5.62132ZM62.3448 16.2694V19.9036H50.6476V1.98716H54.9068V16.2694H62.3572H62.3448Z" fill="white" fill-opacity="0.8"/>
</g>
</g>
<defs>
<clipPath id="clip0_1_14061">
<rect width="62" height="20" fill="white" transform="translate(0.357178 0.945374)"/>
</clipPath>
<clipPath id="clip1_1_14061">
<rect width="62" height="20" fill="white" transform="translate(0.357178 0.945374)"/>
</clipPath>
</defs>
</svg>
