<svg width="144" height="14" viewBox="0 0 144 14" fill="none" xmlns="http://www.w3.org/2000/svg">
<g clip-path="url(#clip0_1_14086)">
<g clip-path="url(#clip1_1_14086)">
<path d="M27.9557 12.6434C27.9557 12.5468 27.9557 12.4019 27.9557 12.3054C27.9012 12.3054 24.3586 12.4985 22.6145 12.4985C20.3254 12.4985 17.0553 12.4503 17.0553 12.4503L2.0127 12.3537C2.0127 12.3054 2.0127 12.1123 2.0127 12.0639L17.1098 12.0157C17.1098 12.0157 20.3799 12.0639 22.669 12.0639C24.4131 12.0639 27.9012 12.0639 27.9557 12.0639C27.9557 11.9191 27.9012 11.6776 27.9012 11.4845C27.8467 11.4845 24.3585 11.7259 22.669 11.7259C20.3799 11.7259 17.1098 11.581 17.1098 11.581H13.2401L8.11692 11.4362H2.0672C2.0672 11.3879 2.1217 11.1948 2.1217 11.1465C2.33971 11.1948 2.50322 11.243 3.26624 11.243C4.24728 11.243 4.6833 11.0499 4.6833 11.0499C4.6833 11.0499 5.39183 11.243 6.31834 11.243C6.75437 11.243 7.73545 10.8567 8.33493 11.0016C9.31601 11.243 9.69748 10.8567 9.69748 10.8567C9.69748 10.8567 9.91549 11.0982 10.3515 11.1948C10.6785 11.243 11.1145 11.0499 11.1145 11.0499C11.1145 11.0499 11.6596 11.3879 13.2401 11.3879C15.1477 11.3879 15.6927 10.4705 15.6927 10.4705H15.7472C15.7472 10.4705 15.6927 10.7119 15.8017 10.9051C16.0197 11.2914 16.6193 11.3396 16.6193 11.3396C16.5648 10.2773 17.0553 9.553 17.0553 9.553H17.1098L17.0008 9.84268C16.7828 10.6153 17.1643 11.2914 17.1643 11.2914L17.3278 11.1948C17.3278 11.1948 17.1643 10.7119 17.3278 10.0358C17.4913 9.35984 17.7638 9.02178 17.7638 9.02178H17.8728C17.8728 9.02178 17.7093 9.553 17.7093 9.93926C17.7093 10.2773 17.9273 11.0982 18.6359 11.3396C19.1808 11.5328 19.6169 11.0982 19.6169 11.0982C19.6169 11.0982 20.8159 11.3879 21.797 11.3879C24.1405 11.3879 24.6856 11.0499 24.6856 11.0499C24.6856 11.0499 24.8491 11.2914 26.0481 11.2914C26.7566 11.2914 27.3017 11.243 27.6287 11.1948C27.7377 11.1948 27.7922 11.1948 27.8467 11.1465C27.8467 10.9533 27.7922 10.8085 27.7377 10.6153C27.0836 7.37999 24.9581 4.57929 22.015 2.79263L21.8515 3.22723C24.7401 4.91731 26.8656 7.57315 27.4652 10.7119C27.1381 10.8085 26.6477 10.9533 26.0481 10.9533C25.1216 10.9533 24.9036 10.7119 24.9036 10.7119C24.9036 10.7119 24.5766 10.9051 23.977 10.9051C23.432 10.9051 23.0505 10.567 23.0505 10.567C23.0505 10.567 22.5055 11.0499 21.5245 11.0499C20.3799 11.0499 19.7804 10.4222 19.5624 10.1324C19.3443 9.84268 19.2353 9.60126 19.2353 9.60126H19.1808C19.1808 9.69784 19.2353 9.84268 19.2898 9.98758C19.4534 10.3739 19.5624 10.4705 19.6169 10.567C19.6714 10.6153 19.7259 10.7602 19.5624 10.8085C19.4534 10.8567 19.3989 10.7602 19.3443 10.7119C19.2898 10.6153 19.0718 10.3739 18.9628 9.98758C18.7994 9.553 18.7994 9.26326 18.7449 9.02178H18.6359C18.5814 9.21494 18.5814 9.553 18.5814 9.93926C18.6359 10.3739 18.7449 10.6636 18.7994 10.7602C18.7994 10.7602 18.8539 10.8085 18.8539 10.8567C18.8539 11.0016 18.7449 11.0499 18.6359 11.0499C18.5268 11.0499 18.4178 10.9533 18.3633 10.8567C17.8728 10.1324 18.4723 8.68378 18.6359 8.2492C18.9083 7.62147 18.9628 6.99368 18.9628 6.99368C18.9628 6.99368 19.2898 6.51083 19.4534 6.17278C19.6714 5.73821 19.8349 5.35191 19.9984 5.20704C20.2164 5.01389 20.5979 4.53101 20.9794 3.90326C21.0339 3.80669 21.3609 3.13065 21.4154 2.98579C21.47 2.88921 21.5245 2.74435 21.579 2.64777C21.7425 2.06831 21.906 1.39228 21.906 1.29571C21.906 1.15084 21.6335 1.05426 21.6335 1.05426C21.6335 1.05426 21.3609 0.957688 21.1974 0.957688C21.0884 0.957688 20.9794 1.05426 20.8704 1.10255C20.7069 1.15084 20.6524 1.10255 20.6524 1.10255C20.6524 1.10255 20.4344 1.00597 20.3254 1.05426C20.2164 1.05426 20.1074 1.19913 19.9984 1.19913C19.8349 1.24742 19.7804 1.24742 19.7804 1.24742C19.7804 1.24742 19.6169 1.19913 19.5079 1.19913C19.3989 1.24742 19.2898 1.29571 19.0718 1.44057C17.5458 0.957688 15.9652 0.716248 14.3301 0.716248C6.86338 0.716248 0.759151 6.02794 0.650146 12.6434C0.650146 12.6917 0.650146 12.9814 0.650146 12.9814H27.9557C27.9557 12.9814 27.9557 12.6917 27.9557 12.6434ZM10.5695 10.229C10.515 10.229 10.5695 10.1807 10.515 10.1807C10.8966 9.11836 11.7686 6.94541 13.1856 5.30362C13.3491 5.35191 13.4581 5.44848 13.6217 5.49677C12.5861 6.51083 11.2235 8.49063 10.5695 10.229ZM11.387 10.567C11.6596 9.60126 12.3681 7.57315 13.8942 5.64163C14.0577 5.73821 14.1666 5.7865 14.3301 5.8831C13.2946 7.09025 12.0411 9.02178 11.4961 10.6153C11.4415 10.6153 11.4415 10.567 11.387 10.567ZM12.4771 10.8085C12.4226 10.8085 12.4771 10.8085 12.4226 10.8085C12.6406 10.0358 13.2401 8.00773 14.6572 6.02794C14.8207 6.12452 14.9297 6.17278 15.0387 6.26936C14.0577 7.57315 12.9676 9.35984 12.4771 10.8085ZM13.5126 10.8085C13.4581 10.8085 13.4581 10.8085 13.4581 10.8085C13.6762 10.0842 14.1666 8.29747 15.3657 6.51083C15.5292 6.60741 15.6927 6.70399 15.7472 6.80057C14.8752 7.95947 13.9487 9.50468 13.5126 10.8085ZM17.1098 7.57315C16.8373 7.57315 16.4557 7.47657 16.3467 7.28341C16.4012 7.62147 16.8373 7.91115 17.2188 7.91115C17.1098 7.91115 17.0553 7.95947 16.9463 7.95947C16.4557 7.95947 16.0197 7.57315 16.0197 7.13857C16.0197 7.09025 16.0197 6.99368 16.0197 6.94541C16.4012 7.23515 17.2188 7.62147 17.7093 7.04199V7.09025C17.6548 7.33173 17.3823 7.57315 17.1098 7.57315ZM18.6359 5.68992C18.6359 5.83479 18.5268 5.8831 18.4178 5.93136C18.3633 5.97968 18.1998 6.02794 18.1998 6.0762H18.1453C18.1453 6.0762 18.0908 6.02794 18.0363 6.02794C18.0363 5.97968 18.0363 5.97968 18.0363 5.97968V5.93136V5.83479C18.0363 5.83479 17.9818 5.73821 18.0363 5.64163C18.0363 5.49677 18.1998 5.4002 18.1998 5.4002H18.2543C18.2543 5.4002 18.1998 5.49677 18.1453 5.59335C18.1453 5.64163 18.0908 5.7865 18.1453 5.8831V5.97968L18.1998 6.02794L18.2543 5.97968C18.3633 5.93136 18.3633 5.8831 18.3633 5.8831C18.3633 5.8831 18.2543 5.7865 18.3088 5.68992C18.3633 5.59335 18.5268 5.59335 18.5268 5.59335C18.5814 5.44848 18.5268 5.35191 18.5268 5.35191L18.6359 5.4002C18.5814 5.35191 18.6359 5.49677 18.6359 5.68992ZM19.3443 1.58543C19.5079 1.53714 19.5624 1.44057 19.7259 1.39228C19.8894 1.34399 19.9984 1.39228 20.1074 1.39228C20.2164 1.39228 20.3799 1.24742 20.4889 1.24742C20.5979 1.24742 20.6524 1.29571 20.7614 1.29571C20.8159 1.39228 21.1429 1.19913 21.1974 1.19913C21.2519 1.19913 21.47 1.19913 21.4154 1.39228C21.3609 1.53714 21.2519 1.97174 21.0339 2.5512C20.9794 2.69606 20.8704 2.88921 20.7614 3.08237C20.6524 3.27552 20.5434 3.51696 20.3799 3.71011C19.7804 4.57929 19.1808 4.38614 18.0363 4.86903C17.1098 5.25533 16.7283 5.49677 16.6193 5.64163C16.5103 5.54506 16.4557 5.54506 16.3467 5.49677C16.5103 5.35191 16.8918 5.11046 17.6548 4.77245C18.4723 4.38614 19.8349 3.90326 20.1074 3.46867C20.1074 3.42038 20.1074 3.42038 20.1074 3.37209C19.7804 3.56525 19.5079 3.66182 19.3989 3.7584C18.0908 4.33786 17.6003 4.48272 17.0008 4.77245C16.7283 4.91731 16.2922 5.11046 16.0197 5.30362C15.9652 5.25533 15.8562 5.20704 15.8017 5.15875C16.0742 4.9656 16.4557 4.77245 16.8373 4.57929C17.4368 4.33786 17.9273 4.09641 19.3443 3.37209C19.4534 3.3238 20.1619 2.9375 20.7069 2.5512C20.7069 2.50291 20.7069 2.45462 20.7614 2.40633C20.2709 2.64777 18.6904 3.42038 18.3633 3.56525C17.0553 4.1447 17.1098 4.09641 16.5103 4.38614C16.1287 4.57929 15.7472 4.77245 15.4747 4.9656C15.4202 4.91731 15.3112 4.86903 15.2567 4.82074C15.5837 4.62758 15.8562 4.43443 16.2922 4.24128C16.8918 3.95155 16.9463 3.90326 18.3088 3.3238C18.9628 3.03408 20.1619 2.30975 20.8159 1.97174C20.8159 1.92345 20.8159 1.92345 20.8159 1.87516C20.1619 2.21318 18.2543 3.08237 17.9818 3.22723C16.6738 3.7584 16.5103 3.80669 15.9107 4.09642C15.5837 4.24128 15.2567 4.43443 14.9842 4.57929C14.9297 4.53101 14.8752 4.48272 14.8207 4.43443C15.0387 4.28957 15.4202 4.04813 15.9107 3.80669C16.5103 3.51696 16.6193 3.46867 17.9273 2.88921C18.0908 2.84092 18.7449 2.50291 19.3443 2.16489C19.5079 2.06831 19.7259 1.97174 19.8894 1.87516C20.0529 1.77859 20.1619 1.68201 20.2709 1.63372L20.2164 1.58543C19.9439 1.68201 19.5624 1.87516 19.4534 1.92345C18.7449 2.26147 17.8728 2.64777 17.6003 2.74435C16.2922 3.3238 16.1287 3.37209 15.5292 3.66182C15.2022 3.80669 14.8207 3.99984 14.6027 4.19299C14.5482 4.1447 14.4937 4.09641 14.4392 4.04813C14.7117 3.85497 15.0932 3.61354 15.5292 3.42038C16.1287 3.13065 16.2377 3.08237 17.5458 2.50291C17.7638 2.40633 17.9818 2.30975 18.1453 2.21318C18.1998 2.21318 18.7994 1.92345 19.3443 1.58543ZM14.8752 1.29571C16.1287 1.29571 17.3823 1.44057 18.5268 1.77859C18.3088 1.92345 17.9818 2.06831 17.5458 2.26147C16.0197 2.9375 15.8562 2.98579 15.2022 3.27552C14.7662 3.46867 14.4392 3.66182 14.1666 3.85497C14.1666 3.85497 13.8942 3.51696 13.7307 3.42038C13.5671 3.3238 13.1856 3.22723 13.0766 3.17894C12.8586 3.08237 12.8041 2.98579 12.4771 2.88921C12.2046 2.79263 11.9866 2.84092 11.8231 2.84092C11.6596 2.79263 11.4961 2.74435 11.2235 2.74435C11.06 2.74435 10.8421 2.84092 10.6785 2.84092C10.4605 2.84092 10.297 2.79263 10.1335 2.79263C9.97 2.84092 9.75198 2.98579 9.53396 2.98579C9.37045 3.03408 9.15249 2.98579 9.04348 2.98579C8.93448 3.03408 8.66196 3.22723 8.49844 3.27552C8.38944 3.3238 8.06241 3.3238 8.11692 3.56525C8.11692 3.7584 8.60745 3.80669 8.60745 3.80669C8.60745 3.80669 10.7331 4.04813 12.8041 5.01389C12.5316 5.35191 12.2046 5.68992 11.9866 6.0762C11.8231 6.02794 11.6051 5.97968 11.4961 5.97968C11.278 5.97968 11.06 6.0762 10.8966 6.02794C10.5695 6.02794 10.5695 5.97968 10.188 6.02794C9.91549 6.0762 9.91549 6.12452 9.69748 6.17278C9.53396 6.2211 9.37045 6.17278 9.09799 6.2211C8.98898 6.26936 8.77096 6.46252 8.60745 6.51083C8.49844 6.5591 8.28043 6.5591 8.11692 6.65568C8.00791 6.75225 8.00791 6.84883 7.73545 6.94541C7.57193 7.04199 7.46292 6.99368 7.29941 7.13857C7.1904 7.33173 7.1904 7.47657 6.91788 7.66973C6.59086 7.91115 6.59086 8.10431 6.64536 8.15263C6.75437 8.34578 7.24491 8.15263 7.24491 8.15263C7.24491 8.15263 8.98898 7.62147 11.06 7.52489C10.515 8.49063 10.079 9.4081 9.80648 10.0358C9.75198 10.1807 9.69748 10.3256 9.64297 10.4222C9.58847 10.4222 9.58847 10.4222 9.58847 10.4222C9.47946 10.3256 9.47946 10.1807 9.53396 9.84268C9.58847 9.50468 9.91549 8.82863 10.0245 8.68378H9.91549C9.80648 8.82863 9.47946 9.35984 9.42495 9.45642C9.316 9.64958 9.2615 9.69784 9.04348 10.1324C8.98898 10.229 8.87997 10.4222 8.71646 10.4222C8.60745 10.4222 8.49844 10.3739 8.49844 10.2773C8.49844 10.229 8.55295 10.1324 8.60745 10.1324C8.87997 9.7461 9.09799 9.35984 9.15249 9.16668H9.04348C9.04348 9.16668 8.28043 10.7119 6.64536 10.7119C6.10036 10.7119 5.50083 10.4705 5.50083 10.4705C5.50083 10.4705 4.7378 10.7602 3.70226 10.7602C2.88473 10.7602 2.39421 10.6153 2.1762 10.567C3.32075 5.35191 8.38944 1.29571 14.8752 1.29571Z" fill="white" fill-opacity="0.8"/>
<path d="M52.6994 12.6917L52.5904 12.6434C51.9364 12.3537 51.7183 11.5328 51.3914 10.8085L48.0667 2.98578H44.9056V3.22722L45.0691 3.27551C45.0691 3.27551 45.2327 3.3238 45.2872 3.37208C45.4506 3.46866 45.6141 3.66181 45.3961 4.1447C45.3961 4.38613 45.2872 4.57929 45.2872 4.57929L42.671 10.8085C42.3985 11.4845 42.1805 12.3537 41.5265 12.6434L41.3085 12.74V12.9814H44.8511V12.74L44.5786 12.6434C44.2516 12.5468 44.1971 12.2571 44.5241 11.4362L44.9056 10.3256H48.6662C48.7752 10.567 48.8842 10.905 49.0478 11.3879C49.2113 11.8708 49.4838 12.4986 49.1023 12.6917L48.8842 12.7882V13.0297H52.6994V12.6917ZM48.1213 8.68376H45.6141L46.8677 5.59334L48.1213 8.68376Z" fill="white" fill-opacity="0.8"/>
<path d="M75.7 2.98578V3.22722L75.9725 3.3238C76.4085 3.46866 76.354 4.38613 76.354 4.96559V11.0016C76.354 11.4845 76.354 12.4986 75.9725 12.6434L75.7 12.74V12.9814H79.2966V12.74L79.0241 12.6434C78.5881 12.4986 78.6426 11.4845 78.6426 11.0016V4.96559C78.6426 4.1447 78.7516 3.42037 79.0241 3.3238L79.2966 3.22722V2.98578H75.7Z" fill="white" fill-opacity="0.8"/>
<path d="M62.1824 2.98578V3.22722L62.4549 3.3238C62.8909 3.46866 62.8364 4.38613 62.8364 4.96559V11.0016C62.8364 11.4845 62.8364 12.4986 62.4549 12.6434L62.1824 12.74V12.9814H65.7796V12.74L65.5071 12.6434C65.0711 12.4986 65.1256 11.4845 65.1256 11.0016V4.96559C65.1256 4.1447 65.2346 3.42037 65.5071 3.3238L65.7796 3.22722V2.98578H62.1824Z" fill="white" fill-opacity="0.8"/>
<path d="M41.9632 2.11655C41.1457 1.39223 39.8921 1.00592 38.5295 1.00592H33.8969V1.24736L34.1149 1.29565C34.7144 1.53709 34.6599 2.84087 34.6599 3.80663V10.1323V10.3738C34.6599 11.0981 34.6599 12.4019 34.1149 12.5951L33.8969 12.6917V12.9331H38.1481V12.6917L37.9845 12.5951C37.2215 12.1605 37.2215 11.1947 37.2215 10.1807V8.05598L37.6575 8.20087C37.6575 8.20087 38.366 8.44229 39.0201 8.44229C40.9821 8.44229 43.1077 7.23508 43.1077 4.62753C43.1077 3.66177 42.7262 2.79258 41.9632 2.11655ZM37.821 7.52482L37.4395 7.57308H37.2215V3.08231C37.494 3.03402 37.821 3.03402 38.257 3.03402C39.1291 3.03402 39.8376 3.22718 40.2191 3.61348C40.6006 3.9515 40.7641 4.38609 40.7641 5.01384C40.7641 6.51077 39.2381 7.42824 37.821 7.52482Z" fill="white" fill-opacity="0.8"/>
<path d="M99.8993 1.00595H97.9917H92.5413V1.29568L92.8683 1.39226C93.3588 1.58541 93.3588 2.69603 93.3588 3.32378V10.567C93.3588 11.1464 93.3588 12.3537 92.8683 12.5468L92.5413 12.6434V12.9331H96.6291V12.6434L96.302 12.5468C95.8115 12.3537 95.8115 11.1948 95.8115 10.567V8.20085H98.2097C98.2097 8.20085 99.2453 8.10427 99.4088 8.49059L99.4633 8.63549L99.7358 8.68375L99.8993 5.49674H99.5178L99.4633 5.68989C99.3543 5.93132 98.4277 6.0279 98.1552 5.97964H95.757C95.757 4.91729 95.757 3.61351 95.757 3.03405H98.7002C99.4088 3.03405 99.7903 3.17892 99.8993 3.51693L99.9532 3.71008H100.28L101.043 0.861084C101.152 0.95766 100.171 1.00595 99.8993 1.00595Z" fill="white" fill-opacity="0.8"/>
<path d="M60.9833 10.2773L60.9288 10.3256C60.8198 10.4222 60.7108 10.4704 60.7108 10.4704C60.0567 10.8567 58.9667 11.2913 57.8769 11.2913C57.0049 11.2913 56.2963 11.0499 55.6968 10.567C54.9883 9.93926 54.6067 8.92521 54.6067 7.76631C54.6067 5.93136 55.8058 4.67585 57.5498 4.67585C58.3674 4.67585 59.1847 4.91729 60.0022 5.40017L60.2203 5.54503L60.6563 5.78648V5.35188V3.37207V3.17892L60.3293 3.13063C59.2392 2.88919 58.3674 2.74432 57.6043 2.74432C56.0783 2.74432 54.7703 3.2272 53.7892 4.09639C52.7537 5.01386 52.1542 6.4142 52.1542 7.95942C52.1542 9.55295 52.6992 10.8567 53.7347 11.7742C54.7703 12.6917 56.2963 13.1746 58.0404 13.1746C58.9124 13.1746 59.7297 13.0297 60.3838 12.6917H60.4383L60.5473 12.6434L60.6018 12.5468L61.3648 10.229H60.9833V10.2773Z" fill="white" fill-opacity="0.8"/>
<path d="M88.8343 10.2773L88.5073 10.4704C87.8532 10.8567 86.7631 11.2913 85.6731 11.2913C84.801 11.2913 84.0924 11.0499 83.4929 10.567C82.7843 9.93926 82.4028 8.92521 82.4028 7.76631C82.4028 5.93136 83.6019 4.67585 85.346 4.67585C86.1636 4.67585 86.9812 4.91729 87.7987 5.40017L88.4528 5.78648V3.37207V3.17892L88.1802 3.13063C87.0902 2.88919 86.2181 2.74432 85.455 2.74432C83.9289 2.74432 82.6208 3.2272 81.6398 4.09639C80.6042 5.01386 80.0046 6.4142 80.0046 7.95942C80.0046 9.55295 80.5497 10.8567 81.5853 11.7742C82.6208 12.6917 84.1469 13.1746 85.8911 13.1746C86.7631 13.1746 87.5807 13.0297 88.2348 12.6917L88.3983 12.6434L89.2158 10.229H88.8343V10.2773Z" fill="white" fill-opacity="0.8"/>
<path d="M73.7918 2.98567H70.7946H67.1974V3.22712L67.4699 3.32369C67.9059 3.46855 67.8514 4.38603 67.8514 4.96549V11.0015C67.8514 11.4844 67.8514 12.4984 67.4699 12.6433L67.1974 12.7398V12.9813H70.7946V12.7398L70.5221 12.6433C70.0861 12.4984 70.1406 11.4844 70.1406 11.0015V9.02169H72.1027C72.1027 9.02169 72.9742 8.97342 73.0832 9.26311L73.1377 9.408L73.3558 9.45626L73.5193 6.80042H73.2467L73.1922 6.94532C73.1377 7.13847 72.3208 7.23505 72.1027 7.18674H70.0861C70.0861 6.31758 70.0861 5.20693 70.0861 4.72404H72.7562C73.3558 4.72404 73.6828 4.86891 73.7918 5.11035L73.8463 5.25521H74.1188L74.7729 2.8891C74.8819 2.8891 74.0098 2.98567 73.7918 2.98567Z" fill="white" fill-opacity="0.8"/>
<path d="M120.009 2.98579V3.22723L120.227 3.32381C120.718 3.61353 120.772 4.04813 120.772 4.86902V9.45639C119.246 7.52486 115.868 2.9375 115.868 2.9375H113.251V3.17894L113.469 3.27552C113.96 3.56525 114.015 4.04813 114.015 4.86902V10.8568C114.015 11.6777 114.015 12.3054 113.469 12.5951L113.306 12.6917V12.9331H116.631V12.6917L116.413 12.5951C115.922 12.4985 115.922 11.6777 115.922 10.8568V6.5108L119.192 10.6636C119.791 11.4362 120.772 12.5468 121.808 12.8365C122.626 13.078 122.789 13.0297 122.789 13.0297V4.91731C122.789 4.09642 122.789 3.61353 123.334 3.32381L123.552 3.22723V2.98579H120.009Z" fill="white" fill-opacity="0.8"/>
<path d="M133.417 4.43443C132.327 3.46867 130.692 2.9375 128.676 2.9375H124.588V3.17894L124.806 3.22723L124.915 3.27552C125.405 3.42038 125.296 4.43443 125.296 4.9656V11.0016C125.296 11.7259 125.296 12.3537 124.697 12.6917L124.533 12.7883V12.9814H128.567C132.272 12.9814 134.889 10.905 134.889 7.91118C134.889 6.5108 134.398 5.30362 133.417 4.43443ZM131.509 10.4704C130.746 11.0982 129.711 11.4845 128.403 11.4845C128.131 11.4845 127.967 11.4362 127.64 11.3879V4.62759C128.076 4.53101 128.294 4.48272 128.676 4.48272C129.929 4.48272 130.855 4.77245 131.509 5.35191C132.163 5.93138 132.49 6.89712 132.49 8.05602C132.49 9.02181 132.109 9.89097 131.509 10.4704Z" fill="white" fill-opacity="0.8"/>
<path d="M111.234 11.1465V4.86902C111.234 4.1447 111.234 3.46866 111.779 3.3238L111.997 3.27551L111.834 2.98578H108.128V3.22722L108.346 3.27551C108.891 3.46866 108.836 4.24127 108.836 4.77244V9.55298C108.836 10.0358 108.836 10.2773 108.564 10.6153C108.128 11.1465 107.31 11.4845 106.438 11.4845C105.73 11.4845 105.239 11.3396 104.858 11.0016C104.367 10.6153 104.149 9.89098 104.149 8.9735V4.72415C104.149 4.1447 104.149 3.37208 104.64 3.22722L104.858 3.17893V2.98578H101.043V3.22722L101.261 3.27551C101.751 3.42037 101.806 4.33785 101.751 5.06217V9.16666C101.751 10.1807 101.751 11.1948 102.678 12.1122C103.441 12.8366 104.585 13.2229 105.893 13.2229C106.819 13.2229 107.964 12.7882 108.782 12.2088V12.9814H111.888V12.74L111.67 12.6917C111.234 12.4986 111.18 11.8708 111.234 11.1465Z" fill="white" fill-opacity="0.8"/>
<path d="M143.064 9.93926C143.064 10.7118 142.683 11.4845 141.974 12.0639C141.156 12.7883 140.012 13.1745 138.758 13.1745C137.777 13.1745 136.851 13.0297 135.979 12.7399H135.924L135.815 12.6917V12.5951V12.5468L135.379 10.7602L135.325 10.4704L135.27 10.229H135.543L135.924 10.6153C136.742 11.2913 137.886 11.5811 138.922 11.5811C139.63 11.5811 140.666 11.1465 140.666 10.4221C140.666 9.60121 139.794 9.21494 138.649 8.73205C137.287 8.15257 135.652 7.42826 135.652 5.59332C135.652 3.51692 137.832 2.7926 139.685 2.7926C140.502 2.7926 141.265 2.88918 141.974 3.13062H142.029L142.192 3.17891V3.32377V3.37206V4.62755V5.06215V5.35187L141.811 5.11043L141.429 4.91728C141.102 4.72413 140.284 4.4344 139.576 4.4344C139.303 4.4344 138.704 4.48269 138.322 4.82071C138.159 4.96557 138.05 5.15872 138.05 5.44845C138.05 6.17278 139.031 6.60736 140.066 7.04194C141.374 7.62142 143.064 8.34573 143.064 9.93926Z" fill="white" fill-opacity="0.8"/>
</g>
</g>
<defs>
<clipPath id="clip0_1_14086">
<rect width="143" height="13" fill="white" transform="translate(0.357178 0.445374)"/>
</clipPath>
<clipPath id="clip1_1_14086">
<rect width="143" height="13" fill="white" transform="translate(0.357178 0.445374)"/>
</clipPath>
</defs>
</svg>
