<svg width="88" height="18" viewBox="0 0 88 18" fill="none" xmlns="http://www.w3.org/2000/svg">
<g clip-path="url(#clip0_1_14065)">
<g clip-path="url(#clip1_1_14065)">
<path d="M58.2132 15.1285C59.3664 15.1537 60.4823 14.7112 61.3161 13.8979L62.8558 15.5895C61.8385 16.6557 60.4324 17.4454 58.2407 17.4454C54.4857 17.4454 52.0623 14.904 52.0623 11.4647C52.0472 10.6939 52.1812 9.9276 52.4566 9.20968C52.732 8.49175 53.1434 7.83629 53.6673 7.28079C54.1911 6.7253 54.8172 6.28069 55.5096 5.97238C56.202 5.66408 56.9472 5.49814 57.7026 5.48407H57.9107C61.6382 5.48407 63.7513 8.3782 63.5667 12.3947H54.745C55.0592 14.0622 56.2061 15.1245 58.2132 15.1245V15.1285ZM60.8998 10.4666C60.6641 8.91133 59.7529 7.7649 57.9265 7.7649C57.1592 7.71916 56.4037 7.97284 55.8129 8.47452C55.2221 8.9762 54.8404 9.68835 54.745 10.4666H60.8998Z" fill="white" fill-opacity="0.8"/>
<path d="M0.357178 15.0042L7.14043 7.97326H0.518216V5.76459H10.2826V8.01736L3.49939 15.0482H10.373V17.2529H0.357178V15.0042Z" fill="white" fill-opacity="0.8"/>
<path d="M17.9891 15.1285C19.1422 15.1537 20.2581 14.7112 21.092 13.8979L22.6317 15.5895C21.6144 16.6557 20.2083 17.4454 18.0166 17.4454C14.2616 17.4454 11.8382 14.904 11.8382 11.4647C11.8231 10.6946 11.9568 9.92891 12.2317 9.2115C12.5066 8.49408 12.9173 7.83897 13.4404 7.28359C13.9634 6.7282 14.5886 6.28342 15.2801 5.97465C15.9716 5.66589 16.7159 5.49919 17.4706 5.48407H17.6788C21.4062 5.48407 23.5194 8.3782 23.3348 12.3947H14.5209C14.8351 14.0622 15.982 15.1245 17.9891 15.1245V15.1285ZM20.6757 10.4666C20.44 8.91133 19.5288 7.7649 17.7023 7.7649C16.9351 7.71916 16.1795 7.97284 15.5888 8.47452C14.998 8.9762 14.6162 9.68835 14.5209 10.4666H20.6757Z" fill="white" fill-opacity="0.8"/>
<path d="M37.9733 11.4767C37.9733 7.80095 40.6639 5.50409 43.6254 5.50409C44.336 5.49471 45.04 5.64415 45.688 5.94191C46.3359 6.23967 46.9122 6.67855 47.3764 7.22774V0.445374H49.7723V17.2209H47.3764V15.6175C46.921 16.1897 46.3452 16.65 45.6918 16.9644C45.0385 17.2787 44.3241 17.439 43.6018 17.4333C42.8565 17.4276 42.1195 17.272 41.4331 16.9756C40.7467 16.6792 40.1242 16.2477 39.6012 15.7057C39.0781 15.1637 38.6648 14.5219 38.3849 13.817C38.1049 13.112 37.9637 12.3576 37.9694 11.597C37.9694 11.5489 37.9694 11.5048 37.9694 11.4607L37.9733 11.4767ZM47.5099 11.4366C47.4949 10.4637 47.1037 9.53631 46.4216 8.85645C45.7395 8.1766 44.8218 7.79941 43.8684 7.80708C42.915 7.81475 42.0032 8.20665 41.3316 8.89739C40.6601 9.58814 40.2833 10.5217 40.2833 11.4948C40.2833 12.4678 40.6601 13.4014 41.3316 14.0922C42.0032 14.7829 42.915 15.1748 43.8684 15.1825C44.8218 15.1901 45.7395 14.8129 46.4216 14.1331C47.1037 13.4532 47.4949 12.5258 47.5099 11.5529V11.4366Z" fill="white" fill-opacity="0.8"/>
<path d="M65.1183 14.7837L67.2864 13.6333C67.5741 14.1548 67.9956 14.5864 68.5057 14.8816C69.0157 15.1768 69.595 15.3245 70.1812 15.3088C71.5363 15.3088 72.2393 14.5993 72.2393 13.7936C72.2393 12.8757 70.9275 12.6672 69.4899 12.3706C67.5692 11.9698 65.5621 11.3124 65.5621 8.94736C65.5621 7.13151 67.255 5.45597 69.9259 5.47601C72.0272 5.47601 73.5866 6.32581 74.4703 7.70473L72.4868 8.83111C72.2086 8.41079 71.8299 8.06983 71.3866 7.84047C70.9433 7.61111 70.45 7.50092 69.9534 7.52034C68.6651 7.52034 68.0091 8.1657 68.0091 8.89926C68.0091 9.72501 69.05 9.9575 70.6761 10.3223C72.53 10.7231 74.6314 11.3565 74.6314 13.7455C74.6314 15.3489 73.2763 17.4694 70.0634 17.4454C67.7067 17.4454 66.061 16.4793 65.1144 14.7797" fill="white" fill-opacity="0.8"/>
<path d="M81.1433 12.1181L79.2422 14.2306V17.2209H76.8463V0.445374H79.2422V11.4286L84.3287 5.72856H87.247L82.8362 10.647L87.357 17.2209H84.6469L81.1433 12.1181Z" fill="white" fill-opacity="0.8"/>
<path d="M30.7306 5.50004C27.8829 5.50004 25.4988 7.38403 25.4988 10.5107V17.2209H27.9418V10.8073C27.9418 8.92329 29.0023 7.7969 30.813 7.7969C32.6237 7.7969 33.5271 8.92329 33.5271 10.8073V17.2209H35.9584V10.5066C35.9584 7.38002 33.5743 5.49603 30.7266 5.49603" fill="white" fill-opacity="0.8"/>
</g>
</g>
<defs>
<clipPath id="clip0_1_14065">
<rect width="87" height="17" fill="white" transform="translate(0.357178 0.445374)"/>
</clipPath>
<clipPath id="clip1_1_14065">
<rect width="87" height="17" fill="white" transform="translate(0.357178 0.445374)"/>
</clipPath>
</defs>
</svg>
